<svg width="858" height="786" viewBox="0 0 858 786" fill="none" xmlns="http://www.w3.org/2000/svg">
<g clip-path="url(#clip0)">
<path d="M398.063 -4.64489C481.127 -15.9127 565.607 -0.047281 638.923 40.5884L673.642 59.8319C759.142 107.221 817.261 192.182 830.438 289.044V289.044C835.439 325.804 833.796 363.163 825.59 399.342L814.312 449.057C797.391 523.655 761.507 592.625 710.132 649.297L707.963 651.69C633.913 733.376 531.685 784.002 421.831 793.39V793.39C397.105 795.504 372.243 795.504 347.517 793.39L298.005 789.159C219.171 782.421 144.607 750.459 85.3666 698.011V698.011C24.8128 644.399 -16.3969 572.336 -31.8929 492.958L-36.5254 469.227C-58.3935 357.208 -29.9161 241.239 41.3509 152.091V152.091C103.711 74.0836 193.708 23.0767 292.671 9.65195L398.063 -4.64489Z" fill="url(#paint0_linear)" fill-opacity="0.94"/>
<g filter="url(#filter0_d)">
<path d="M789.05 277.601L785.276 276.272L821.603 172.97C827.179 157.113 826.222 139.693 818.942 124.542C811.662 109.39 798.656 97.7484 782.785 92.1773L782.782 92.1763L563.714 15.2899C547.843 9.71874 530.408 10.6747 515.242 17.9474C500.077 25.2202 488.425 38.2139 482.849 54.0703L482.848 54.0732L283.58 620.799C280.819 628.65 279.633 636.968 280.089 645.277C280.546 653.586 282.636 661.724 286.241 669.226C289.845 676.729 294.894 683.448 301.098 689.001C307.301 694.554 314.539 698.832 322.398 701.591L322.401 701.592L541.463 778.482C557.334 784.053 574.77 783.096 589.935 775.823C605.1 768.55 616.751 755.556 622.327 739.7L759.419 349.81L763.193 351.134L789.05 277.601Z" fill="#3F3D56"/>
</g>
<path d="M779.319 108.078L750.736 98.0363C750.918 101.721 750.192 105.393 748.62 108.73C747.049 112.068 744.681 114.967 741.725 117.174C738.769 119.381 735.316 120.826 731.669 121.384C728.023 121.942 724.295 121.594 720.815 120.372L595.373 76.303C591.893 75.0794 588.768 73.019 586.272 70.3032C583.776 67.5874 581.986 64.2995 581.06 60.7292C580.134 57.1588 580.101 53.4155 580.962 49.829C581.823 46.2425 583.553 42.9228 585.999 40.1623L559.303 30.7836C547.456 26.6216 534.44 27.3364 523.12 32.7708C511.799 38.2052 503.101 47.914 498.939 59.7615L300.034 625.931C295.872 637.779 296.587 650.794 302.021 662.115C307.456 673.435 317.164 682.133 329.012 686.296V686.296L549.034 763.591C560.882 767.753 573.897 767.038 585.218 761.603C596.538 756.169 605.236 746.46 609.399 734.613V734.613L808.299 168.442C812.46 156.594 811.745 143.579 806.311 132.258C800.876 120.938 791.167 112.24 779.319 108.078L779.319 108.078Z" fill="white"/>
<path d="M201.141 312.692C218.718 312.949 233.176 298.908 233.432 281.33C233.689 263.753 219.648 249.296 202.07 249.039C184.493 248.783 170.036 262.824 169.779 280.401C169.522 297.978 183.564 312.436 201.141 312.692Z" fill="#DFBABF"/>
<path d="M183.151 284.535C185.676 284.421 188.127 285.307 190.628 285.679C199.575 287 208.994 280.632 211.102 271.837C211.278 270.665 211.645 269.529 212.189 268.475C213.601 266.242 216.749 265.859 219.331 266.415C221.914 266.971 224.352 268.218 226.987 268.396C231.057 268.669 235.003 266.219 237.224 262.798C239.327 259.266 240.259 255.159 239.888 251.065L237.905 253.086C237.136 251.396 236.857 249.524 237.1 247.683C236.069 247.393 234.981 247.371 233.94 247.622C232.899 247.872 231.939 248.385 231.153 249.113C229.429 249.271 230.778 245.914 229.517 244.728C228.901 244.337 228.161 244.188 227.441 244.309C223.778 244.291 220.856 241.447 218.003 239.15C213.06 235.178 207.252 232.426 201.048 231.114C196.924 230.247 192.528 230.054 188.584 231.532C185.398 232.907 182.511 234.893 180.086 237.376C173.86 243.186 168.321 250.049 165.649 258.137C163.475 264.763 163.312 271.885 165.181 278.603C166.159 282.091 169.088 294.034 173.625 294.378C179.323 294.812 176.043 284.855 183.151 284.535Z" fill="#2F2E41"/>
<path d="M135.416 534.773C137.199 533.588 138.7 532.027 139.814 530.2C140.928 528.373 141.628 526.323 141.865 524.196C142.101 522.069 141.868 519.916 141.183 517.888C140.497 515.861 139.375 514.008 137.896 512.461L145.425 385.791L116.468 388.613L116.337 512.625C113.902 515.282 112.527 518.74 112.471 522.343C112.416 525.947 113.684 529.445 116.036 532.176C118.388 534.907 121.66 536.68 125.232 537.159C128.804 537.638 132.427 536.791 135.416 534.777L135.416 534.773Z" fill="#DFBABF"/>
<path d="M185.023 750.108L201.435 753.241L218.604 691.385L197.107 686.8L185.023 750.108Z" fill="#DFBABF"/>
<path d="M230.062 774.545L178.478 764.654L182.299 744.724L213.953 750.793C219.239 751.807 223.906 754.879 226.927 759.333C229.948 763.787 231.076 769.259 230.062 774.545V774.545Z" fill="#2F2E41"/>
<path d="M139.741 757.685L156.446 757.929L165.334 693.607L140.678 693.247L139.741 757.685Z" fill="#DFBABF"/>
<path d="M188.424 773.912L135.918 773.145L136.215 752.859L168.434 753.33C173.814 753.408 178.943 755.621 182.692 759.481C186.44 763.341 188.502 768.532 188.424 773.912Z" fill="#2F2E41"/>
<path d="M212.263 735.706C211.994 735.702 211.726 735.682 211.46 735.647L191.206 733.694C189.403 733.457 187.768 732.518 186.661 731.084C185.555 729.65 185.067 727.839 185.306 726.048C185.321 725.935 185.339 725.822 185.36 725.71L206.935 627.374L195.25 560.943C195.156 560.402 194.867 559.914 194.439 559.569C194.01 559.223 193.47 559.043 192.918 559.062C192.366 559.082 191.84 559.298 191.436 559.673C191.033 560.047 190.78 560.554 190.724 561.1L169.635 729.155C169.436 730.925 168.551 732.55 167.168 733.685C165.786 734.82 164.013 735.377 162.224 735.239L143.131 734.254C141.458 734.112 139.896 733.366 138.739 732.159C137.582 730.951 136.911 729.365 136.851 727.699L141.346 524.315L240.569 513.468L245.939 619.677L245.909 619.789L219.003 730.599C218.618 732.077 217.744 733.383 216.522 734.309C215.3 735.235 213.8 735.727 212.263 735.706Z" fill="#2F2E41"/>
<path d="M204.011 545.221C198.775 545.176 193.661 543.633 189.274 540.772C173.21 530.403 154.737 534.162 145.155 537.328C144.204 537.646 143.194 537.744 142.199 537.616C141.205 537.488 140.252 537.137 139.413 536.589C138.583 536.051 137.886 535.332 137.373 534.486C136.861 533.641 136.546 532.69 136.453 531.705L121.38 376.613C118.853 350.628 134.837 326.466 159.384 319.161C160.306 318.887 161.243 318.628 162.196 318.383C169.83 316.433 177.799 316.179 185.542 317.64C193.285 319.101 200.613 322.241 207.012 326.839C213.531 331.487 218.952 337.508 222.893 344.477C226.835 351.446 229.201 359.194 229.826 367.176L242.148 523.262C242.232 524.273 242.08 525.29 241.704 526.232C241.328 527.175 240.739 528.017 239.982 528.692C234.796 533.351 219.767 545.449 204.011 545.221Z" fill="#FF6363"/>
<path d="M153.178 410.287L114.127 405.416C113.016 405.277 111.948 404.901 110.995 404.312C110.043 403.724 109.229 402.936 108.608 402.005C107.987 401.073 107.574 400.018 107.398 398.913C107.221 397.807 107.285 396.676 107.585 395.597L118.095 357.797C118.436 354.974 119.331 352.246 120.728 349.77C122.124 347.293 123.995 345.116 126.233 343.362C128.472 341.609 131.034 340.314 133.773 339.551C136.512 338.788 139.375 338.573 142.197 338.917C145.02 339.261 147.747 340.158 150.222 341.557C152.698 342.956 154.874 344.828 156.625 347.068C158.376 349.308 159.669 351.871 160.43 354.611C161.19 357.351 161.403 360.214 161.056 363.036C161.046 363.117 161.036 363.199 161.025 363.28L161.933 402.377C161.958 403.496 161.742 404.608 161.299 405.636C160.857 406.664 160.197 407.585 159.367 408.336C158.536 409.087 157.553 409.649 156.485 409.986C155.417 410.323 154.289 410.425 153.178 410.287Z" fill="#FF6363"/>
<path d="M832.354 782.929L0.442535 770.783L0.41334 772.783L832.325 784.928L832.354 782.929Z" fill="#CACACA"/>
<path d="M241.699 542.322C243.402 541.025 244.8 539.371 245.794 537.475C246.788 535.58 247.355 533.489 247.454 531.351C247.552 529.213 247.181 527.079 246.366 525.1C245.551 523.121 244.312 521.345 242.736 519.896L242.073 393.005L213.362 397.362L221.233 521.448C218.976 524.257 217.827 527.796 218.004 531.395C218.182 534.993 219.673 538.402 222.196 540.975C224.719 543.548 228.098 545.106 231.692 545.355C235.287 545.603 238.848 544.524 241.7 542.322L241.699 542.322Z" fill="#DFBABF"/>
<path d="M203.421 413.053C202.611 412.278 201.979 411.338 201.566 410.296C201.154 409.254 200.971 408.136 201.031 407.017L203.079 367.964C202.553 362.27 204.302 356.6 207.943 352.192C211.585 347.783 216.823 344.996 222.513 344.437C228.204 343.878 233.884 345.595 238.313 349.211C242.742 352.827 245.56 358.049 246.151 363.736L255.553 401.827C255.821 402.915 255.852 404.047 255.643 405.147C255.435 406.247 254.991 407.289 254.343 408.202C253.696 409.115 252.859 409.878 251.889 410.439C250.92 410.999 249.842 411.345 248.727 411.451L209.55 415.179C208.435 415.286 207.311 415.151 206.253 414.783C205.195 414.416 204.229 413.824 203.421 413.049L203.421 413.053Z" fill="#FF6363"/>
</g>
<defs>
<filter id="filter0_d" x="275" y="-4" width="577.183" height="805.771" filterUnits="userSpaceOnUse" color-interpolation-filters="sRGB">
<feFlood flood-opacity="0" result="BackgroundImageFix"/>
<feColorMatrix in="SourceAlpha" type="matrix" values="0 0 0 0 0 0 0 0 0 0 0 0 0 0 0 0 0 0 127 0"/>
<feOffset dx="11" dy="2"/>
<feGaussianBlur stdDeviation="7"/>
<feColorMatrix type="matrix" values="0 0 0 0 0 0 0 0 0 0 0 0 0 0 0 0 0 0 0.25 0"/>
<feBlend mode="normal" in2="BackgroundImageFix" result="effect1_dropShadow"/>
<feBlend mode="normal" in="SourceGraphic" in2="effect1_dropShadow" result="shape"/>
</filter>
<linearGradient id="paint0_linear" x1="717" y1="-36.5" x2="-71" y2="773" gradientUnits="userSpaceOnUse">
<stop stop-color="#6C63FF" stop-opacity="0.58"/>
<stop offset="1" stop-color="#63FFFF" stop-opacity="0.52"/>
</linearGradient>
<clipPath id="clip0">
<rect width="846.135" height="772.409" fill="white" transform="translate(11.6828 0.865326) rotate(0.83642)"/>
</clipPath>
</defs>
</svg>
